{
  "accessors": [
    {
      "bufferView": 2,
      "componentType": 5126,
      "count": 13113,
      "max": [
        2.033352851867676,
        3.805910348892212,
        1.839494228363037
      ],
      "min": [
        -1.839494228363037,
        -1.8075993061065674,
        -1.8394954204559326
      ],
      "type": "VEC3"
    },
    {
      "bufferView": 2,
      "byteOffset": 157356,
      "componentType": 5126,
      "count": 13113,
      "max": [
        1.0,
        1.0,
        1.0
      ],
      "min": [
        -1.0,
        -1.0,
        -1.0
      ],
      "type": "VEC3"
    },
    {
      "bufferView": 1,
      "componentType": 5126,
      "count": 13113,
      "max": [
        0.9964761137962341,
        0.9987095594406128
      ],
      "min": [
        0.0017265398055315018,
        0.003506237640976906
      ],
      "type": "VEC2"
    },
    {
      "bufferView": 0,
      "componentType": 5125,
      "count": 24501,
      "type": "SCALAR"
    },
    {
      "bufferView": 2,
      "byteOffset": 314712,
      "componentType": 5126,
      "count": 13583,
      "max": [
        2.033352851867676,
        3.8131463527679443,
        1.8467299938201904
      ],
      "min": [
        -1.8467298746109009,
        -1.8075988292694092,
        -1.8467310667037964
      ],
      "type": "VEC3"
    },
    {
      "bufferView": 2,
      "byteOffset": 477708,
      "componentType": 5126,
      "count": 13583,
      "max": [
        1.0,
        1.0,
        1.0
      ],
      "min": [
        -1.0,
        -1.0,
        -1.0
      ],
      "type": "VEC3"
    },
    {
      "bufferView": 1,
      "byteOffset": 104904,
      "componentType": 5126,
      "count": 13583,
      "max": [
        0.9964761137962341,
        0.9987095594406128
      ],
      "min": [
        0.0017265398055315018,
        0.003506237640976906
      ],
      "type": "VEC2"
    },
    {
      "bufferView": 0,
      "byteOffset": 98004,
      "componentType": 5125,
      "count": 24501,
      "type": "SCALAR"
    }
  ],
  "asset": {
    "extras": {
      "author": "kotzlovred (https://sketchfab.com/kotzlovred)",
      "license": "CC-BY-NC-4.0 (http://creativecommons.org/licenses/by-nc/4.0/)",
      "source": "https://sketchfab.com/3d-models/i-am-error-948d4989ce5d4f559199dfb2dc4518f7",
      "title": "I_am_Error"
    },
    "generator": "Sketchfab-12.67.0",
    "version": "2.0"
  },
  "bufferViews": [
    {
      "buffer": 0,
      "byteLength": 196008,
      "name": "floatBufferViews",
      "target": 34963
    },
    {
      "buffer": 0,
      "byteLength": 213568,
      "byteOffset": 196008,
      "byteStride": 8,
      "name": "floatBufferViews",
      "target": 34962
    },
    {
      "buffer": 0,
      "byteLength": 640704,
      "byteOffset": 409576,
      "byteStride": 12,
      "name": "floatBufferViews",
      "target": 34962
    }
  ],
  "buffers": [
    {
      "byteLength": 1050280,
      "uri": "scene.bin"
    }
  ],
  "extensionsUsed": [
    "KHR_materials_unlit"
  ],
  "images": [
    {
      "uri": "textures/TS_GunsAtlas_4_baseColor.png"
    }
  ],
  "materials": [
    {
      "extensions": {
        "KHR_materials_unlit": {}
      },
      "name": "TS_GunsAtlas_4",
      "pbrMetallicRoughness": {
        "baseColorTexture": {
          "index": 0
        },
        "metallicFactor": 0.0
      }
    },
    {
      "extensions": {
        "KHR_materials_unlit": {}
      },
      "name": "outline.001",
      "pbrMetallicRoughness": {
        "baseColorFactor": [
          0.0,
          0.0,
          0.0,
          1.0
        ],
        "metallicFactor": 0.0
      }
    }
  ],
  "meshes": [
    {
      "name": "Object_0",
      "primitives": [
        {
          "attributes": {
            "NORMAL": 1,
            "POSITION": 0,
            "TEXCOORD_0": 2
          },
          "indices": 3,
          "material": 0,
          "mode": 4
        }
      ]
    },
    {
      "name": "Object_1",
      "primitives": [
        {
          "attributes": {
            "NORMAL": 5,
            "POSITION": 4,
            "TEXCOORD_0": 6
          },
          "indices": 7,
          "material": 1,
          "mode": 4
        }
      ]
    }
  ],
  "nodes": [
    {
      "children": [
        1
      ],
      "matrix": [
        1.0,
        0.0,
        0.0,
        0.0,
        0.0,
        2.220446049250313e-16,
        -1.0,
        0.0,
        0.0,
        1.0,
        2.220446049250313e-16,
        0.0,
        0.0,
        0.0,
        0.0,
        1.0
      ],
      "name": "Sketchfab_model"
    },
    {
      "children": [
        2
      ],
      "name": "root"
    },
    {
      "children": [
        3
      ],
      "matrix": [
        1.0,
        0.0,
        0.0,
        0.0,
        0.0,
        2.220446049250313e-16,
        1.0,
        0.0,
        0.0,
        -1.0,
        2.220446049250313e-16,
        0.0,
        0.0,
        0.0,
        0.0,
        1.0
      ],
      "name": "GLTF_SceneRootNode"
    },
    {
      "children": [
        4,
        5
      ],
      "name": "character_error.010_0"
    },
    {
      "mesh": 0,
      "name": "Object_4"
    },
    {
      "mesh": 1,
      "name": "Object_5"
    }
  ],
  "samplers": [
    {
      "magFilter": 9728,
      "minFilter": 9728,
      "wrapS": 10497,
      "wrapT": 10497
    }
  ],
  "scene": 0,
  "scenes": [
    {
      "name": "Sketchfab_Scene",
      "nodes": [
        0
      ]
    }
  ],
  "textures": [
    {
      "sampler": 0,
      "source": 0
    }
  ]
}
